<svg xmlns="http://www.w3.org/2000/svg" xml:space="preserve" viewBox="0 0 39.761 39.761" width="32" height="32"><path d="M8.184 15.336c0 3.648 3.035 6.551 6.679 6.551 3.649 0 6.684-2.836 6.684-6.551v-13.5h-3.309v13.5c0 1.824-1.484 3.242-3.304 3.242-1.758 0-3.309-1.418-3.309-3.242v-13.5H8.184Z" style="fill:#d7193a;fill-opacity:1;fill-rule:nonzero;stroke:none" transform="scale(1.33333)"/><path d="M24.789 1.836v13.5c0 5.469-4.523 9.855-9.992 9.855-5.535 0-9.988-4.32-9.988-9.855v-13.5H1.5v13.5C1.5 22.695 7.508 28.5 14.797 28.5c7.359 0 13.297-5.805 13.297-13.164v-13.5z" style="fill:#d7193a;fill-opacity:1;fill-rule:nonzero;stroke:none" transform="scale(1.33333)"/></svg>