<svg xmlns="http://www.w3.org/2000/svg" xml:space="preserve" viewBox="0 0 105.827 39.761" width="32" height="32"><path d="M34.844 15.203h2.363c1.082 0 1.824-.539 1.824-1.555 0-.605-.269-1.011-.742-1.214.473-.2.672-.606.672-1.145 0-.945-.672-1.488-1.754-1.488h-2.293v5.402zm2.297-2.43c.742 0 1.078.336 1.078.809s-.336.809-1.012.809h-1.551v-1.618zm0-2.226c.605 0 .945.269.945.742s-.27.809-.945.809h-1.555v-1.551zm2.968 4.656h.813v-2.226c0-.743.336-1.016.941-1.016.203 0 .407.07.473.137l.34-.743a1.7 1.7 0 0 0-.676-.136c-.539 0-.879.269-1.078.742v-.672h-.813zm4.93.067c.875 0 1.414-.407 1.82-.946l-.675-.402c-.2.402-.606.605-1.145.605-.742 0-1.215-.406-1.351-1.078h3.308v-.34c0-1.148-.879-2.023-2.027-2.023-1.145 0-2.09.875-2.09 2.09s.875 2.094 2.16 2.094m-.07-3.442c.676 0 1.148.336 1.215 1.012h-2.496a1.3 1.3 0 0 1 1.281-1.012m3.105 3.375h.813v-2.226c0-.743.336-1.149.941-1.149.61 0 .879.336.879.945v2.364h.742v-2.231c0-.742.34-1.078.946-1.078.609 0 .878.406.878 1.012v2.297h.875v-2.364c0-1.011-.539-1.687-1.617-1.687-.609 0-1.015.269-1.285.676-.199-.407-.605-.676-1.281-.676-.539 0-.879.203-1.149.539v-.473h-.742zm9.114.067c.878 0 1.417-.407 1.824-.946l-.676-.402c-.203.402-.609.605-1.148.605-.743 0-1.215-.406-1.352-1.078h3.309v-.34c0-1.148-.879-2.023-2.024-2.023-1.148 0-2.094.875-2.094 2.09.067 1.215.879 2.094 2.161 2.094m-.067-3.442c.676 0 1.145.336 1.215 1.012h-2.5c.203-.606.676-1.012 1.285-1.012m3.106 3.375h.808v-2.226c0-.743.473-1.149 1.078-1.149.676 0 1.016.406 1.016 1.078v2.231h.809V12.84c0-1.078-.61-1.754-1.622-1.754-.539 0-1.011.269-1.281.605v-.539h-.808ZM36.871 7.305c1.215 0 2.09-.809 2.09-2.094V1.836h-.809v3.375c0 .742-.539 1.285-1.281 1.285s-1.285-.543-1.285-1.285V1.836h-.809v3.375c.067 1.285.879 2.094 2.094 2.094m3.305-.067h.812V5.012c0-.746.473-1.149 1.078-1.149.676 0 1.012.403 1.012 1.078v2.231h.813V4.941c0-1.078-.61-1.753-1.621-1.753-.54 0-1.012.269-1.282.609v-.543h-.812zm4.929 0h.809V3.254h-.809Zm-.203-5.199c0 .34.203.539.539.539.34 0 .543-.269.543-.539.067-.269-.136-.539-.472-.539-.34 0-.61.27-.61.539m3.375 5.199h.809l1.621-3.984h-.809L48.75 6.227l-1.148-2.973h-.875zm4.996.067c.875 0 1.418-.407 1.821-.946l-.672-.406c-.203.406-.61.609-1.149.609-.742 0-1.214-.406-1.351-1.078h3.308v-.273c0-1.145-.878-2.023-2.027-2.023-1.144 0-2.09.878-2.09 2.093.067 1.145.875 2.024 2.16 2.024m-.07-3.442c.676 0 1.149.336 1.219 1.012h-2.5c.203-.609.676-1.012 1.281-1.012m3.176 3.375h.809V5.012c0-.746.335-1.016.945-1.016.203 0 .406.07.472.137l.27-.809a1.7 1.7 0 0 0-.676-.136c-.539 0-.875.269-1.078.742v-.676h-.812v3.984zm4.519.067c1.082 0 1.622-.676 1.622-1.282 0-.812-.743-1.082-1.418-1.214-.606-.137-.946-.204-.946-.543 0-.27.203-.539.742-.539.407 0 .743.203.879.472l.676-.402c-.34-.473-.879-.746-1.621-.746-.945 0-1.551.543-1.551 1.215 0 .812.742 1.015 1.348 1.148.543.137 1.012.203 1.012.539 0 .274-.27.543-.809.543-.473 0-.809-.203-1.078-.609l-.742.406c.472.676 1.011 1.012 1.886 1.012m2.704-.067h.808V3.254h-.808Zm-.137-5.199c0 .34.203.539.539.539.34 0 .543-.269.543-.539 0-.336-.203-.539-.543-.539a.53.53 0 0 0-.539.539m2.023 1.957h.813v1.957c0 .945.472 1.352 1.215 1.352.336 0 .605-.067.808-.27l-.402-.676c-.137.137-.274.137-.406.137-.34 0-.539-.203-.539-.609V3.996h1.078v-.742h-1.078V1.906l-.676.473v.875h-.813zm4.93 3.309c.676 0 1.215-.336 1.551-.809v.676h.742V4.738c0-.941-.672-1.617-1.754-1.617-.879 0-1.484.402-1.82.875l.672.406c.203-.406.609-.605 1.148-.605.676 0 1.012.336 1.012.875v.066h-1.145c-1.082 0-1.758.473-1.758 1.285-.066.743.473 1.282 1.352 1.282m.203-.676c-.543 0-.742-.203-.742-.539 0-.406.269-.606 1.012-.606h1.148v.336c-.34.473-.879.809-1.418.809m-.945-4.32c0 .269.203.472.472.472.27 0 .473-.203.473-.472a.46.46 0 0 0-.473-.473c-.269-.066-.472.137-.472.473m1.551 0c0 .269.203.472.472.472.27 0 .539-.203.539-.472 0-.27-.199-.473-.539-.473-.269-.066-.472.137-.472.473m2.363 1.687h.808v1.957c0 .945.473 1.352 1.215 1.352.34 0 .61-.067.813-.27l-.406-.676c-.133.137-.27.137-.407.137-.336 0-.539-.203-.539-.609V3.996h1.082v-.742h-1.082V1.906l-.676.473v.875h-.808Z" style="fill:#000;fill-opacity:1;fill-rule:nonzero;stroke:none" transform="scale(1.33333)"/><path d="M8.184 15.336c0 3.648 3.035 6.551 6.679 6.551 3.649 0 6.684-2.836 6.684-6.551v-13.5h-3.309v13.5c0 1.824-1.484 3.242-3.304 3.242-1.758 0-3.309-1.418-3.309-3.242v-13.5H8.184Z" style="fill:#d7193a;fill-opacity:1;fill-rule:nonzero;stroke:none" transform="scale(1.33333)"/><path d="M24.789 1.836v13.5c0 5.469-4.523 9.855-9.992 9.855-5.535 0-9.988-4.32-9.988-9.855v-13.5H1.5v13.5C1.5 22.695 7.508 28.5 14.797 28.5c7.359 0 13.297-5.805 13.297-13.164v-13.5z" style="fill:#d7193a;fill-opacity:1;fill-rule:nonzero;stroke:none" transform="scale(1.33333)"/></svg>